<svg id="eguEFm85kjZ1" xmlns="http://www.w3.org/2000/svg" xmlns:xlink="http://www.w3.org/1999/xlink" viewBox="0 0 300 300" shape-rendering="geometricPrecision" text-rendering="geometricPrecision" style="background-color:transparent"><defs><linearGradient  x1="0.5" y1="0" x2="0.5" y2="1" spreadMethod="pad" gradientUnits="objectBoundingBox" gradientTransform="translate(0 0)"><stop id="eguEFm85kjZ6-fill-0" offset="0%" stop-color="rgba(255,255,255,0)"/><stop id="eguEFm85kjZ6-fill-1" offset="100%" stop-color="#010022"/></linearGradient></defs><g id="eguEFm85kjZ2" transform="translate(49.999994 49.856806)"><path class="anim" d="M93.68,5.155c3.679164-3.000422,8.960836-3.000422,12.64,0l7.933,6.47c2.496417,2.03559,5.820401,2.74431,8.93,1.904l9.856-2.664c4.576717-1.237178,9.39315.909399,11.533,5.14l4.657,9.21c1.449331,2.86597,4.186969,4.861443,7.359,5.364l10.129,1.605c4.667143.739444,8.179682,4.64486,8.422,9.364l.533,10.39c.164099,3.194856,1.846835,6.118362,4.527,7.865l8.666,5.649c3.946344,2.572893,5.561758,7.551185,3.878,11.951l-3.728,9.743c-1.141072,2.980782-.790714,6.327198.943,9.007l5.66,8.746c2.557488,3.95306,2.011091,9.15466-1.312,12.49l-7.33,7.359c-2.254297,2.262721-3.291818,5.46633-2.792,8.621l1.631,10.299c.736534,4.659367-1.882191,9.200046-6.284,10.896l-9.61,3.7c-2.991107,1.151721-5.248981,3.667287-6.072,6.765l-2.661,10.018c-1.21507,4.575325-5.471835,7.671799-10.199,7.419l-10.209-.546c-3.21262-.172164-6.311868,1.211855-8.328,3.719l-6.438,8.008c-2.974052,3.699077-8.138649,4.797927-12.361,2.63l-9.086-4.665c-2.866977-1.471062-6.267023-1.471062-9.134,0l-9.087,4.665c-4.222047,2.167782-9.386288,1.068919-12.36-2.63l-6.438-8.008c-2.016132-2.507145-5.11538-3.891164-8.328-3.719l-10.209.546c-4.727531.253287-8.984855-2.84329-10.2-7.419l-2.66-10.018c-.822871-3.097793-3.080797-5.613417-6.072-6.765l-9.61-3.7c-4.402599-1.695031-7.021728-6.236412-6.284-10.896l1.631-10.299c.499486-3.154644-.537988-6.358105-2.792-8.621l-7.33-7.359c-3.323091-3.33534-3.869488-8.53694-1.312-12.49l5.66-8.746c1.733714-2.679802,2.084072-6.026218.943-9.007L7.257,77.403c-1.683758-4.399815-.068344-9.378107,3.878-11.951l8.666-5.649c2.680165-1.746638,4.362901-4.670144,4.527-7.865l.533-10.39c.242318-4.71914,3.754857-8.624556,8.422-9.364l10.129-1.605c3.172031-.502557,5.909669-2.49803,7.359-5.364l4.657-9.21c2.13985-4.230601,6.956283-6.377178,11.533-5.14l9.856,2.664c3.109589.84065,6.43373.131897,8.93-1.904l7.933-6.47Z" fill="#006fee"/></g><text id="eguEFm85kjZ4" style="isolation:isolate" dx="0" dy="0" font-family="&quot;eguEFm85kjZ1:::Oswald&quot;" font-size="32" font-weight="900" letter-spacing="2" transform="translate(128.898445 159.350775)" fill="#fff" stroke-width="0"><tspan y="0" font-weight="900" stroke-width="0"><![CDATA[
# 1
]]></tspan></text>
</svg>
